<svg xmlns="http://www.w3.org/2000/svg" xml:space="preserve" width="192" height="192" data-version="2">
    <path fill="#0f0" d="M107.39 145.18q-6.31 0-9.32-2.63-3.01-2.63-3.01-8.42v-95.5q-2.4.23-5.98.87-3.57.64-7.48 1.84-3.91 1.2-7.82 2.89-3.91 1.7-6.99 3.91-3.08 2.22-5.04 5-1.96 2.79-1.96 6.17 0 2.41.64 3.83.64 1.43 1.47 2.15.83.71 1.69.9.87.19 1.24.19 1.88 0 3.09-.64 1.2-.64 2.18-1.35.97-.72 1.84-1.36.86-.64 1.99-.64.9 0 1.92.42 1.01.41 1.88 1.31.86.9 1.47 2.37.6 1.47.6 3.57 0 3.01-1.17 5.19-1.16 2.18-3.01 3.65-1.84 1.46-4.21 2.18-2.37.71-4.7.71-3.61 0-6.5-1.24-2.9-1.24-4.93-3.42-2.03-2.18-3.08-5.11-1.05-2.93-1.05-6.24 0-8.8 4.85-15.23t13.27-10.68q8.42-4.25 19.63-6.28 11.2-2.03 23.98-2.03 6.09 0 11.88.12 5.79.11 10.57.33 4.77.23 8.23.53 3.46.3 5.04.68 1.5.37 2.41 1.09.9.71 1.35 1.61.45.91.6 1.92.15 1.02.15 2.07 0 .83-.22 1.92-.23 1.09-.68 2.06-.45.98-1.13 1.66-.67.68-1.65.68-.6 0-1.24-.53t-1.77-1.28q-1.13-.75-3.05-1.73-1.91-.98-5.03-1.8-3.12-.83-7.67-1.51-4.55-.67-11.02-.9v95.65q0 5.79-3.01 8.42t-9.25 2.63" paint-order="stroke"/>
</svg>
