<svg xmlns="http://www.w3.org/2000/svg" xml:space="preserve" width="16" height="16" data-version="2">
    <path fill="#0f0" d="M8.81 11.34q-.45 0-.66-.19-.22-.19-.22-.6V3.72q-.17.02-.42.07-.26.04-.54.13-.28.08-.56.2-.28.13-.5.28-.22.16-.36.36-.14.2-.14.44 0 .17.05.28.05.1.1.15.06.05.13.06.06.02.08.02.14 0 .22-.05.09-.04.16-.1.07-.05.13-.09.06-.05.14-.05.07 0 .14.03t.13.1q.07.06.11.16.04.11.04.26 0 .21-.08.37t-.22.26q-.13.11-.3.16-.17.05-.33.05-.26 0-.47-.09-.2-.09-.35-.25-.14-.15-.22-.36-.07-.21-.07-.45 0-.62.34-1.08.35-.46.95-.77.6-.3 1.4-.45.8-.14 1.72-.14.43 0 .84.01.42.01.76.02.34.02.59.04.24.02.36.05.1.02.17.08.06.05.1.11.03.07.04.14.01.07.01.15 0 .05-.02.13-.01.08-.05.15-.03.07-.08.12-.04.05-.11.05-.05 0-.09-.04-.05-.04-.13-.09-.08-.06-.22-.13-.13-.07-.36-.12-.22-.06-.54-.11-.33-.05-.79-.07v6.84q0 .41-.22.6-.21.19-.66.19" paint-order="stroke"/>
</svg>
