<svg xmlns="http://www.w3.org/2000/svg" version="1.1" xmlns:xlink="http://www.w3.org/1999/xlink" width="2000" height="279" viewBox="0 0 2000 279"><svg xml:space="preserve" width="2000" height="279" data-version="2" data-id="lg_OstdVklSNAVmYSp8dh" viewBox="0 0 602 279" x="0" y="0"><rect width="100%" height="100%" fill="transparent"></rect><path fill="#0f0" stroke="#0f0" stroke-width="9" d="M32.129 203h541.082"></path><path fill="#0f0" d="M69.58 135.34q-7.05 0-10.41-2.94t-3.36-9.41V16.33q-2.69.25-6.68.97-3.99.71-8.36 2.05-4.36 1.35-8.73 3.24t-7.81 4.36q-3.44 2.48-5.63 5.59-2.18 3.11-2.18 6.89 0 2.68.71 4.28.72 1.59 1.64 2.39t1.89 1.01 1.39.21q2.09 0 3.44-.71 1.34-.72 2.43-1.52 1.1-.79 2.06-1.51.97-.71 2.23-.71 1.01 0 2.14.46t2.1 1.47q.96 1.01 1.64 2.65.67 1.63.67 3.99 0 3.35-1.3 5.79-1.31 2.44-3.36 4.07-2.06 1.64-4.71 2.44-2.64.8-5.25.8-4.03 0-7.26-1.39-3.23-1.38-5.5-3.82t-3.44-5.71q-1.18-3.28-1.18-6.97 0-9.83 5.42-17.01Q17.59 22.46 27 17.72q9.41-4.75 21.92-7.02 12.51-2.26 26.79-2.26 6.8 0 13.27.12 6.47.13 11.8.38t9.2.59q3.86.33 5.62.75 1.68.42 2.69 1.22t1.51 1.81q.51 1 .67 2.14.17 1.13.17 2.31 0 .92-.25 2.14t-.75 2.31q-.51 1.09-1.26 1.85-.76.75-1.85.75-.67 0-1.39-.59-.71-.58-1.97-1.42t-3.4-1.93q-2.14-1.1-5.63-2.02t-8.57-1.68-12.3-1.01v106.83q0 6.47-3.36 9.41t-10.33 2.94m121.19-76.35v60.39q0 .75.08 1.64.09.88.42 1.68.34.79 1.01 1.3.67.5 1.93.5 1.6 0 2.86-1.13 1.26-1.14 2.35-2.31l2.02 1.76q-1.26 1.77-3.15 3.91t-4.58 4.07-6.13 3.23q-3.44 1.31-7.81 1.31-3.7 0-6.43-.97t-4.62-2.6q-1.89-1.64-2.81-3.87-.92-2.22-.92-4.74v-3.78q-4.2 4.53-8.82 7.98-2.02 1.51-4.28 2.94-2.27 1.42-4.71 2.56-2.43 1.13-5.04 1.8-2.6.68-5.2.68-5.04 0-8.61-1.81t-5.76-4.74q-2.18-2.94-3.19-6.64-1-3.69-1-7.39V62.77q0-.75-.09-1.63-.08-.89-.42-1.68-.33-.8-1.01-1.31-.67-.5-1.93-.5-1.51 0-2.81 1.13-1.3 1.14-2.31 2.31l-2.1-1.76q1.26-1.76 3.15-3.91 1.89-2.14 4.58-4.07 2.68-1.93 6.17-3.23 3.48-1.3 7.77-1.3 3.69 0 6.46.96 2.78.97 4.62 2.61 1.85 1.63 2.77 3.86.93 2.22.93 4.74v56.11q0 1.17.38 2.39.37 1.22 1.09 2.22.71 1.01 1.8 1.64 1.1.63 2.61.63 2.43 0 4.87-1.26 2.43-1.26 4.45-2.98t3.48-3.4q1.47-1.68 2.15-2.52V62.77q0-.75-.09-1.63-.08-.89-.42-1.68-.33-.8-1.01-1.31-.67-.5-1.93-.5-1.51 0-2.81 1.13-1.3 1.14-2.31 2.31l-2.1-1.76q1.26-1.76 3.15-3.91 1.89-2.14 4.58-4.07 2.68-1.93 6.17-3.23t7.77-1.3q3.69 0 6.47.96 2.77.97 4.61 2.61 1.85 1.63 2.78 3.86.92 2.22.92 4.74m69.37 33.18q0-7.31-.75-13.73-.76-6.43-2.44-11.26t-4.28-7.64q-2.61-2.81-6.3-2.81-2.86 0-4.83 1.38-1.98 1.39-3.24 3.15-1.25 1.77-1.84 3.49t-.59 2.31v25.11q0 18.31 3.06 26.62 3.07 8.32 9.03 8.32 6.3 0 9.24-8.49 2.94-8.48 2.94-26.45m-50.05 1.09V18.09q0-2.43-1.14-4.24-1.13-1.8-3.82-1.8-1.43 0-2.48.46t-2.22 1.38l-1.68-2.01q1.93-1.6 4.32-3.15 2.4-1.55 5.17-2.73t5.96-1.93q3.19-.76 6.72-.76 4.87 0 7.85 1.47t4.54 3.61q1.55 2.15 2.06 4.62.5 2.48.5 4.58v37.46q1.01-.93 2.6-2.31 1.6-1.39 4.03-2.73 2.44-1.35 5.84-2.27t8.02-.92q5.38 0 10.75 2.47 5.38 2.48 9.66 7.77t6.97 13.61q2.69 8.31 2.69 19.99 0 9.15-2.48 17.3-2.48 8.14-7.35 14.23t-12.18 9.62q-7.3 3.53-16.96 3.53-10.5 0-17.68-3.41-7.18-3.4-11.55-9.15-4.36-5.75-6.25-13.4-1.89-7.64-1.89-16.12m147.39-17.39L324.3 95.43q0 2.69.8 5.84t2.31 6.34 3.74 6.09 5.12 5.17q2.9 2.26 6.43 3.61 3.52 1.34 7.72 1.34 2.94 0 5.46-.67t4.71-1.85q2.18-1.18 4.2-2.73 2.01-1.55 4.03-3.32l2.1 2.02q-1.94 2.6-4.96 5.71t-7.31 5.84q-4.28 2.73-9.99 4.53-5.71 1.81-13.02 1.81-7.3 0-14.23-2.65-6.93-2.64-12.31-7.93-5.37-5.3-8.6-13.19-3.24-7.89-3.24-18.48 0-7.64 1.93-14.02 1.94-6.38 5.25-11.51 3.32-5.12 7.73-8.98 4.41-3.87 9.28-6.43t9.95-3.86 9.79-1.3q6.21 0 10.83 1.34t7.68 3.61q3.07 2.27 4.58 5.25t1.51 6.26q0 3.94-2.26 7.09-2.27 3.15-6.05 5.51m-34.01 12.68 17.72-10.17q1.09-.67 1.8-1.3.72-.63 1.14-1.51t.63-2.18.21-3.24q0-2.1-.47-4.66-.46-2.56-1.55-4.83-1.09-2.26-2.77-3.78-1.68-1.51-4.03-1.51-3.03 0-5.17 1.81-2.14 1.8-3.53 4.66-1.38 2.86-2.18 6.51t-1.22 7.35q-.42 3.69-.5 7.09-.08 3.41-.08 5.76m105.4-.16v-3.74q0-2.81-.17-6.47-.17-3.65-.59-7.76-.42-4.12-1.34-7.65-2.02-2.6-4.5-4.66-2.47-2.06-6.34-2.06-6.55 0-9.61 8.57-3.07 8.57-3.07 26.54 0 7.89.71 14.45.72 6.55 2.19 11.25t3.78 7.31q2.31 2.6 5.5 2.6 13.44 0 13.44-38.38m-1.01-36.95q-1.6-8.4-4.45-15.67-2.86-7.26-6.85-12.55t-9.07-8.32q-5.08-3.02-10.96-3.02-3.36 0-6.09.84t-4.74 1.97q-2.02 1.14-3.32 2.19t-1.89 1.55l-2.18-2.94q2.01-2.6 4.91-4.87t6.34-3.86q3.44-1.6 7.27-2.52 3.82-.93 7.6-.93 12.43 0 21.83 5.42 9.41 5.42 15.71 15.33t9.49 23.93q3.19 14.03 3.19 31.16 0 13.86-2.81 24.36-2.82 10.49-8.03 17.59-5.2 7.1-12.63 10.67-7.44 3.57-16.76 3.57-6.47 0-13.14-2.31-6.68-2.31-12.1-7.52-5.41-5.21-8.86-13.65-3.44-8.44-3.44-20.7 0-10.58 2.98-18.81t8.02-13.9 11.67-8.65q6.64-2.98 14.03-2.98 2.86 0 5.12.46 2.27.46 3.95 1.13t2.94 1.47 2.27 1.56m68.78-34.27V126.6q0 1.09-.38 2.61-.37 1.51-1.76 2.85t-4.03 2.31q-2.65.97-7.1.97t-6.97-1.05-3.74-2.48q-1.21-1.43-1.51-2.94-.29-1.51-.29-2.44V18.09q0-2.43-1.14-4.24-1.13-1.8-3.82-1.8-1.43 0-2.47.46-1.05.46-2.23 1.38l-1.68-2.01q1.93-1.6 4.28-3.15T468.97 6q2.81-1.18 6-1.93 3.19-.76 6.72-.76 5.46 0 8.48 1.47 3.03 1.47 4.46 3.61 1.42 2.15 1.72 4.54.29 2.39.29 4.24m22.17 150.91V61.59q0-2.44-1.13-4.24-1.13-1.81-3.82-1.81-1.43 0-2.44.5-1.01.51-2.18 1.43l-1.77-2.1q1.94-1.59 4.33-3.15 2.39-1.55 5.17-2.73 2.77-1.17 5.96-1.93 3.19-.75 6.72-.75 3.78 0 6.46 1.17 2.69 1.18 4.5 2.82 1.8 1.63 2.73 3.44.92 1.8 1.09 3.06 1.68-2.35 3.99-4.28t5.04-3.32q2.73-1.38 5.79-2.14 3.07-.75 6.34-.75 6.72 0 12.18 2.77t9.36 8.23q3.91 5.46 6.01 13.52t2.1 18.64q0 12.27-2.56 20.87-2.56 8.61-6.72 14.07t-9.49 7.94-10.88 2.48q-4.62 0-8.1-.93-3.49-.92-6.01-2.27-2.52-1.34-4.2-2.72-1.68-1.39-2.68-2.31v40.98q0 1.09-.34 2.6-.34 1.52-1.64 2.9-1.3 1.39-3.86 2.39-2.56 1.01-7.01 1.01t-7.02-1.05q-2.56-1.05-3.9-2.52-1.35-1.47-1.68-2.94-.34-1.47-.34-2.39m25.79-99.77v46.78q0 .67.58 2.35.59 1.68 1.85 3.44t3.23 3.15q1.98 1.39 4.83 1.39 3.7 0 6.3-2.82 2.61-2.81 4.29-7.64t2.43-11.25q.76-6.43.76-13.74 0-8.98-.97-15.2-.96-6.21-2.81-10.03t-4.41-5.55q-2.56-1.72-5.75-1.72-1.85 0-3.7 1.05t-3.32 2.61q-1.47 1.55-2.39 3.48t-.92 3.7"></path><path fill="#fff" d="M171.63 267.8q-1.94 0-3.44-.95t-2.45-2.17v2.59h-10.41v-6.24H157v-17.1h-1.67v-6.23h10.41v11.02q.95-1.21 2.45-2.16t3.44-.95q3.88 0 5.83 2.88 1.96 2.89 1.96 8.21t-1.96 8.21q-1.95 2.89-5.83 2.89m-3.68-6.77q1.1 0 1.65-.59.55-.58.55-1.84v-3.8q0-1.25-.55-1.84t-1.65-.59q-1.11 0-1.66.59t-.55 1.84v3.8q0 1.26.55 1.84.55.59 1.66.59m30.2-14.88h10.56v6.23h-1.44l-4.98 13.19q-1.86 4.97-4.26 7.46-2.39 2.49-6.31 2.49-1.59 0-3.23-.32-1.63-.32-2.96-.89v-6.88h5.24v.38q0 .95.99.95.88 0 1.33-.84l-6-15.54h-1.45v-6.23h11.29v6.23h-1.29l1.97 5.93 1.83-5.93h-1.29zm75.81-8.45v6.23h-1.9v17.1h1.9v6.24H259.6v-6.24h1.83v-13.3l-6.47 19.54h-5.62l-6.65-19.35v13.11h1.82v6.24h-12.46v-6.24h1.9v-17.1h-1.9v-6.23h17.4l3.96 11.86 3.8-11.86zm23.02 7.92q.76 0 1.45.15.68.15 1.14.38v7.26q-1.56-.65-3.35-.65-2.39 0-3.68 1.25-1.29 1.26-1.29 3.73v3.3h3.42v6.24h-13.84v-6.24h1.68v-8.66h-1.68v-6.23h10.42v2.77q1.06-1.59 2.43-2.45 1.37-.85 3.3-.85m15.94 21.66h-5.93v-6.24h5.93zm46.16-29.58 6.42 23.33h1.52v6.24h-14.9v-6.24h2.28l-.61-3.04h-5.17l-.6 3.04h2.28v6.24h-13v-6.24h1.52l6.42-23.33zm-8.06 8.7-1.56 7.57h3.5l-1.56-7.57zm46.05 14.64h1.68v6.24h-12.01v-6.24h1.6v-6.23q0-1.25-.54-1.84-.53-.59-1.59-.59-2.28 0-2.28 2.43v6.23h1.59v6.24h-12v-6.24h1.67v-8.66h-1.67v-6.23h10.41v2.96q2.73-3.49 6.84-3.49 3.15 0 4.73 1.97 1.57 1.98 1.57 5.44zm28.74 0h1.67v6.24h-10.03v-2.59q-.83 1.22-2.33 2.17t-3.67.95q-2.85 0-4.49-1.52-1.63-1.52-1.63-4.3 0-7.18 12.2-7.37-.11-1.29-.99-1.77-.87-.47-2.96-.47-1.71 0-3.67.36t-3.59.97v-6.99q2.01-.5 4.37-.8t4.6-.3q5.66 0 8.09 2.05t2.43 6.34zm-8.36-2.43v-.23q-1.71 0-2.64.46t-.93 1.52q0 .65.4 1.04.4.4 1.12.4.99 0 1.52-.83.53-.84.53-2.36m25.84 9.2q-4.78 0-9.23-1.52v-5.63h6.16v.38q0 1.83 2.31 1.83 2.06 0 2.06-1.41 0-.76-.59-1.14t-2.07-.64l-1.9-.35q-5.97-1.06-5.97-6.76 0-3.31 2.51-5.13t6.76-1.82q4.75 0 8.02 1.59v5.28h-5.78v-.38q0-.76-.51-1.16-.51-.39-1.5-.39-1.9 0-1.9 1.21 0 .65.53.99t1.94.65l2.17.41q3.38.65 4.82 2.4 1.45 1.75 1.45 4.48 0 3.46-2.42 5.28-2.41 1.83-6.86 1.83"></path></svg></svg>